<svg xmlns="http://www.w3.org/2000/svg" xmlns:xlink="http://www.w3.org/1999/xlink" width="500" zoomAndPan="magnify" viewBox="0 0 375 374.999991" height="500" preserveAspectRatio="xMidYMid meet" version="1.2"><defs><clipPath id="ae44419572"><path d="M 36.417969 145.625 L 128 145.625 L 128 232.667969 L 36.417969 232.667969 Z M 36.417969 145.625 "/></clipPath><clipPath id="3b6b0b0812"><path d="M 82.203125 145.625 C 56.917969 145.625 36.417969 165.109375 36.417969 189.144531 C 36.417969 213.179688 56.917969 232.667969 82.203125 232.667969 C 107.492188 232.667969 127.992188 213.179688 127.992188 189.144531 C 127.992188 165.109375 107.492188 145.625 82.203125 145.625 Z M 82.203125 145.625 "/></clipPath><clipPath id="d38acbc75c"><path d="M 53.777344 147.226562 L 108.5625 147.226562 L 108.5625 202.011719 L 53.777344 202.011719 Z M 53.777344 147.226562 "/></clipPath><clipPath id="b8ec0cf99c"><path d="M 81.167969 147.226562 C 66.042969 147.226562 53.777344 159.492188 53.777344 174.621094 C 53.777344 189.746094 66.042969 202.011719 81.167969 202.011719 C 96.296875 202.011719 108.5625 189.746094 108.5625 174.621094 C 108.5625 159.492188 96.296875 147.226562 81.167969 147.226562 Z M 81.167969 147.226562 "/></clipPath><clipPath id="2607bac19c"><path d="M 78.152344 157.296875 L 110 157.296875 L 110 189.144531 L 78.152344 189.144531 Z M 78.152344 157.296875 "/></clipPath><clipPath id="34a734aaa4"><path d="M 94.078125 157.296875 C 85.28125 157.296875 78.152344 164.425781 78.152344 173.222656 C 78.152344 182.015625 85.28125 189.144531 94.078125 189.144531 C 102.871094 189.144531 110 182.015625 110 173.222656 C 110 164.425781 102.871094 157.296875 94.078125 157.296875 Z M 94.078125 157.296875 "/></clipPath><clipPath id="70250fb271"><path d="M 36.417969 143.355469 L 127.917969 143.355469 L 127.917969 234.855469 L 36.417969 234.855469 Z M 36.417969 143.355469 "/></clipPath></defs><g id="cca13a042b"><g clip-rule="nonzero" clip-path="url(#ae44419572)"><g clip-rule="nonzero" clip-path="url(#3b6b0b0812)"><path style=" stroke:none;fill-rule:nonzero;fill:#3b5370;fill-opacity:1;" d="M 36.417969 145.625 L 127.878906 145.625 L 127.878906 232.667969 L 36.417969 232.667969 Z M 36.417969 145.625 "/></g></g><g clip-rule="nonzero" clip-path="url(#d38acbc75c)"><g clip-rule="nonzero" clip-path="url(#b8ec0cf99c)"><path style=" stroke:none;fill-rule:nonzero;fill:#7d7f81;fill-opacity:1;" d="M 53.777344 147.226562 L 108.5625 147.226562 L 108.5625 202.011719 L 53.777344 202.011719 Z M 53.777344 147.226562 "/></g></g><g clip-rule="nonzero" clip-path="url(#2607bac19c)"><g clip-rule="nonzero" clip-path="url(#34a734aaa4)"><path style=" stroke:none;fill-rule:nonzero;fill:#60778e;fill-opacity:1;" d="M 78.152344 157.296875 L 110 157.296875 L 110 189.144531 L 78.152344 189.144531 Z M 78.152344 157.296875 "/></g></g><g clip-rule="nonzero" clip-path="url(#70250fb271)"><path style=" stroke:none;fill-rule:nonzero;fill:#ffffff;fill-opacity:1;" d="M 82.167969 143.355469 C 56.921875 143.355469 36.417969 163.863281 36.417969 189.105469 C 36.417969 214.351562 56.921875 234.855469 82.167969 234.855469 C 107.410156 234.855469 127.917969 214.351562 127.917969 189.105469 C 127.917969 163.863281 107.410156 143.355469 82.167969 143.355469 Z M 82.167969 147.335938 C 90.554688 147.335938 97.976562 151.328125 102.699219 157.503906 C 100.144531 156.097656 97.214844 155.292969 94.101562 155.292969 C 84.238281 155.292969 76.199219 163.332031 76.199219 173.195312 C 76.199219 183.058594 84.238281 191.097656 94.101562 191.097656 C 97.214844 191.097656 100.144531 190.292969 102.699219 188.886719 C 97.976562 195.058594 90.554688 199.050781 82.167969 199.050781 C 67.859375 199.050781 56.308594 187.5 56.308594 173.195312 C 56.308594 158.890625 67.859375 147.335938 82.167969 147.335938 Z M 59.113281 154.273438 C 54.878906 159.425781 52.328125 166.019531 52.328125 173.195312 C 52.328125 189.648438 65.710938 203.03125 82.167969 203.03125 C 98.003906 203.03125 110.957031 190.621094 111.910156 175.019531 C 111.972656 174.417969 112.003906 173.808594 112.003906 173.195312 C 112.003906 172.578125 111.972656 171.96875 111.910156 171.367188 C 111.515625 164.90625 109.089844 158.984375 105.21875 154.273438 C 116.5 161.75 123.9375 174.542969 123.9375 189.105469 C 123.9375 212.199219 105.257812 230.878906 82.167969 230.878906 C 59.074219 230.878906 40.394531 212.199219 40.394531 189.105469 C 40.394531 174.542969 47.832031 161.75 59.113281 154.273438 Z M 94.101562 159.269531 C 101.328125 159.269531 107.238281 164.722656 107.953125 171.757812 C 107.980469 172.234375 108.023438 172.710938 108.023438 173.195312 C 108.023438 173.679688 107.980469 174.152344 107.953125 174.632812 C 107.238281 181.664062 101.328125 187.117188 94.101562 187.117188 C 86.386719 187.117188 80.175781 180.90625 80.175781 173.195312 C 80.175781 165.480469 86.386719 159.269531 94.101562 159.269531 Z M 94.101562 159.269531 "/></g><g style="fill:#ffffff;fill-opacity:1;"><g transform="translate(138.151439, 178.18376)"><path style="stroke:none" d="M 9.640625 -29.453125 L 9.640625 -4.875 L 22.875 -4.875 L 22.875 0 L 3.828125 0 L 3.828125 -29.453125 Z M 9.640625 -29.453125 "/></g></g><g style="fill:#ffffff;fill-opacity:1;"><g transform="translate(165.179537, 178.18376)"><path style="stroke:none" d="M 28.265625 0 L 22.140625 0 L 19.921875 -6.78125 L 8.640625 -6.78125 L 6.421875 0 L 0.4375 0 L 10.609375 -29.453125 L 18.09375 -29.453125 Z M 14 -23.296875 L 10.21875 -11.6875 L 18.3125 -11.6875 L 14.5 -23.296875 Z M 14 -23.296875 "/></g></g><g style="fill:#ffffff;fill-opacity:1;"><g transform="translate(196.837817, 178.18376)"><path style="stroke:none" d="M 9.46875 0 L 3.828125 0 L 3.828125 -29.453125 L 10.5 -29.453125 L 22.3125 -10.46875 L 22.84375 -10.546875 L 22.84375 -29.453125 L 28.4375 -29.453125 L 28.4375 0 L 22.484375 0 L 9.96875 -20.265625 L 9.46875 -20.1875 Z M 9.46875 0 "/></g></g><g style="fill:#ffffff;fill-opacity:1;"><g transform="translate(232.079524, 178.18376)"><path style="stroke:none" d="M 22.84375 -18.375 L 22.84375 -29.453125 L 28.640625 -29.453125 L 28.640625 0 L 22.84375 0 L 22.84375 -13.421875 L 9.640625 -13.421875 L 9.640625 0 L 3.828125 0 L 3.828125 -29.453125 L 9.640625 -29.453125 L 9.640625 -18.375 Z M 22.84375 -18.375 "/></g></g><g style="fill:#ffffff;fill-opacity:1;"><g transform="translate(267.522548, 178.18376)"><path style="stroke:none" d="M 28.265625 0 L 22.140625 0 L 19.921875 -6.78125 L 8.640625 -6.78125 L 6.421875 0 L 0.4375 0 L 10.609375 -29.453125 L 18.09375 -29.453125 Z M 14 -23.296875 L 10.21875 -11.6875 L 18.3125 -11.6875 L 14.5 -23.296875 Z M 14 -23.296875 "/></g></g><g style="fill:#ffffff;fill-opacity:1;"><g transform="translate(299.180828, 178.18376)"><path style="stroke:none" d="M 9.171875 0 L 3.828125 0 L 3.828125 -29.453125 L 11.4375 -29.453125 L 18.890625 -7.796875 L 19.3125 -7.796875 L 26.734375 -29.453125 L 34.15625 -29.453125 L 34.15625 0 L 28.640625 0 L 28.640625 -19.453125 L 28.140625 -19.53125 L 21.328125 0 L 16.46875 0 L 9.671875 -19.53125 L 9.171875 -19.453125 Z M 9.171875 0 "/></g></g><g style="fill:#ffffff;fill-opacity:1;"><g transform="translate(141.572837, 210.176417)"><path style="stroke:none" d="M 9.203125 0.296875 C 7.765625 0.296875 6.484375 0.117188 5.359375 -0.234375 C 4.242188 -0.585938 3.3125 -1.050781 2.5625 -1.625 C 1.8125 -2.207031 1.238281 -2.847656 0.84375 -3.546875 L 3.09375 -6.296875 L 3.453125 -6.296875 C 4.078125 -5.367188 4.867188 -4.628906 5.828125 -4.078125 C 6.796875 -3.523438 7.921875 -3.25 9.203125 -3.25 C 10.304688 -3.25 11.132812 -3.476562 11.6875 -3.9375 C 12.25 -4.40625 12.53125 -5.050781 12.53125 -5.875 C 12.53125 -6.363281 12.441406 -6.773438 12.265625 -7.109375 C 12.085938 -7.441406 11.789062 -7.722656 11.375 -7.953125 C 10.957031 -8.191406 10.390625 -8.398438 9.671875 -8.578125 L 7 -9.1875 C 5.132812 -9.613281 3.742188 -10.320312 2.828125 -11.3125 C 1.921875 -12.300781 1.46875 -13.585938 1.46875 -15.171875 C 1.46875 -16.335938 1.757812 -17.363281 2.34375 -18.25 C 2.925781 -19.144531 3.78125 -19.835938 4.90625 -20.328125 C 6.03125 -20.828125 7.375 -21.078125 8.9375 -21.078125 C 10.539062 -21.078125 11.910156 -20.863281 13.046875 -20.4375 C 14.191406 -20.019531 15.160156 -19.375 15.953125 -18.5 L 13.921875 -15.71875 L 13.5625 -15.71875 C 12.96875 -16.332031 12.289062 -16.789062 11.53125 -17.09375 C 10.78125 -17.40625 9.914062 -17.5625 8.9375 -17.5625 C 7.8125 -17.5625 6.953125 -17.363281 6.359375 -16.96875 C 5.773438 -16.570312 5.484375 -16.023438 5.484375 -15.328125 C 5.484375 -14.671875 5.6875 -14.144531 6.09375 -13.75 C 6.507812 -13.363281 7.226562 -13.0625 8.25 -12.84375 L 10.96875 -12.28125 C 12.988281 -11.851562 14.453125 -11.128906 15.359375 -10.109375 C 16.273438 -9.085938 16.734375 -7.757812 16.734375 -6.125 C 16.734375 -4.820312 16.453125 -3.691406 15.890625 -2.734375 C 15.328125 -1.773438 14.484375 -1.03125 13.359375 -0.5 C 12.234375 0.03125 10.847656 0.296875 9.203125 0.296875 Z M 9.203125 0.296875 "/></g></g><g style="fill:#ffffff;fill-opacity:1;"><g transform="translate(164.65157, 210.176417)"><path style="stroke:none" d="M 11.328125 0.296875 C 9.421875 0.296875 7.738281 -0.0859375 6.28125 -0.859375 C 4.832031 -1.640625 3.695312 -2.828125 2.875 -4.421875 C 2.050781 -6.023438 1.640625 -8.015625 1.640625 -10.390625 C 1.640625 -12.765625 2.050781 -14.75 2.875 -16.34375 C 3.695312 -17.945312 4.832031 -19.132812 6.28125 -19.90625 C 7.738281 -20.6875 9.421875 -21.078125 11.328125 -21.078125 C 13.234375 -21.078125 14.910156 -20.691406 16.359375 -19.921875 C 17.804688 -19.148438 18.941406 -17.960938 19.765625 -16.359375 C 20.585938 -14.753906 21 -12.765625 21 -10.390625 C 21 -8.015625 20.585938 -6.023438 19.765625 -4.421875 C 18.941406 -2.816406 17.804688 -1.628906 16.359375 -0.859375 C 14.910156 -0.0859375 13.234375 0.296875 11.328125 0.296875 Z M 11.328125 -3.265625 C 13.085938 -3.265625 14.429688 -3.832031 15.359375 -4.96875 C 16.285156 -6.101562 16.75 -7.910156 16.75 -10.390625 C 16.75 -12.867188 16.285156 -14.675781 15.359375 -15.8125 C 14.429688 -16.957031 13.085938 -17.53125 11.328125 -17.53125 C 9.554688 -17.53125 8.203125 -16.957031 7.265625 -15.8125 C 6.335938 -14.675781 5.875 -12.867188 5.875 -10.390625 C 5.875 -7.910156 6.335938 -6.101562 7.265625 -4.96875 C 8.203125 -3.832031 9.554688 -3.265625 11.328125 -3.265625 Z M 11.328125 -3.265625 "/></g></g><g style="fill:#ffffff;fill-opacity:1;"><g transform="translate(192.516978, 210.176417)"><path style="stroke:none" d="M 15.875 -20.78125 L 15.875 -17.34375 L 6.8125 -17.34375 L 6.8125 -11.84375 L 15.03125 -11.84375 L 15.03125 -8.4375 L 6.8125 -8.4375 L 6.8125 0 L 2.703125 0 L 2.703125 -20.78125 Z M 15.875 -20.78125 "/></g></g><g style="fill:#ffffff;fill-opacity:1;"><g transform="translate(214.544631, 210.176417)"><path style="stroke:none" d="M 16.65625 -20.78125 L 16.65625 -17.328125 L 10.65625 -17.328125 L 10.65625 0 L 6.5625 0 L 6.5625 -17.328125 L 0.5625 -17.328125 L 0.5625 -20.78125 Z M 16.65625 -20.78125 "/></g></g><g style="fill:#ffffff;fill-opacity:1;"><g transform="translate(236.998398, 210.176417)"><path style="stroke:none" d="M 9.921875 0 L 5.328125 0 L 0.5625 -20.78125 L 4.65625 -20.78125 L 7.796875 -6.171875 L 8.15625 -6.171875 L 11.875 -20.78125 L 15.390625 -20.78125 L 19.1875 -6.171875 L 19.546875 -6.171875 L 22.703125 -20.78125 L 26.65625 -20.78125 L 21.90625 0 L 17.296875 0 L 13.65625 -13.40625 L 13.359375 -13.40625 Z M 9.921875 0 "/></g></g><g style="fill:#ffffff;fill-opacity:1;"><g transform="translate(268.954288, 210.176417)"><path style="stroke:none" d="M 19.9375 0 L 15.625 0 L 14.0625 -4.796875 L 6.09375 -4.796875 L 4.53125 0 L 0.3125 0 L 7.484375 -20.78125 L 12.765625 -20.78125 Z M 9.875 -16.4375 L 7.203125 -8.25 L 12.921875 -8.25 L 10.234375 -16.4375 Z M 9.875 -16.4375 "/></g></g><g style="fill:#ffffff;fill-opacity:1;"><g transform="translate(294.433461, 210.176417)"><path style="stroke:none" d="M 2.703125 0 L 2.703125 -20.78125 L 11.046875 -20.78125 C 13.191406 -20.78125 14.8125 -20.285156 15.90625 -19.296875 C 17 -18.304688 17.546875 -16.9375 17.546875 -15.1875 C 17.546875 -13.925781 17.226562 -12.894531 16.59375 -12.09375 C 15.957031 -11.289062 15.003906 -10.675781 13.734375 -10.25 L 13.734375 -9.953125 C 14.390625 -9.660156 14.914062 -9.234375 15.3125 -8.671875 C 15.71875 -8.117188 16.097656 -7.296875 16.453125 -6.203125 L 18.53125 0 L 14.3125 0 L 12.28125 -6.21875 C 12.070312 -6.84375 11.835938 -7.328125 11.578125 -7.671875 C 11.316406 -8.015625 10.984375 -8.265625 10.578125 -8.421875 C 10.179688 -8.578125 9.660156 -8.65625 9.015625 -8.65625 L 6.8125 -8.65625 L 6.8125 0 Z M 10.546875 -11.90625 C 12.535156 -11.90625 13.53125 -12.835938 13.53125 -14.703125 C 13.53125 -16.585938 12.535156 -17.53125 10.546875 -17.53125 L 6.8125 -17.53125 L 6.8125 -11.90625 Z M 10.546875 -11.90625 "/></g></g><g style="fill:#ffffff;fill-opacity:1;"><g transform="translate(319.088814, 210.176417)"><path style="stroke:none" d="M 6.8125 -9.125 L 6.8125 -3.4375 L 16.734375 -3.4375 L 16.734375 0 L 2.703125 0 L 2.703125 -20.78125 L 16.5 -20.78125 L 16.5 -17.34375 L 6.8125 -17.34375 L 6.8125 -12.484375 L 15.28125 -12.484375 L 15.28125 -9.125 Z M 6.8125 -9.125 "/></g></g><g style="fill:#ffffff;fill-opacity:1;"><g transform="translate(218.051049, 230.705297)"><path style="stroke:none" d="M 3.46875 -12.921875 L 3.46875 -1.25 L 9.703125 -1.25 L 9.703125 0 L 1.953125 0 L 1.953125 -12.921875 Z M 3.46875 -12.921875 "/></g></g><g style="fill:#ffffff;fill-opacity:1;"><g transform="translate(231.55627, 230.705297)"><path style="stroke:none" d="M 3.46875 -12.921875 L 3.46875 -1.25 L 9.703125 -1.25 L 9.703125 0 L 1.953125 0 L 1.953125 -12.921875 Z M 3.46875 -12.921875 "/></g></g><g style="fill:#ffffff;fill-opacity:1;"><g transform="translate(244.619493, 230.705297)"><path style="stroke:none" d="M 7.140625 0.1875 C 6.015625 0.1875 5.007812 -0.0703125 4.125 -0.59375 C 3.238281 -1.113281 2.546875 -1.875 2.046875 -2.875 C 1.546875 -3.875 1.296875 -5.070312 1.296875 -6.46875 C 1.296875 -7.863281 1.546875 -9.0625 2.046875 -10.0625 C 2.546875 -11.0625 3.238281 -11.816406 4.125 -12.328125 C 5.007812 -12.847656 6.015625 -13.109375 7.140625 -13.109375 C 8.347656 -13.109375 9.351562 -12.878906 10.15625 -12.421875 C 10.957031 -11.972656 11.535156 -11.285156 11.890625 -10.359375 L 10.921875 -9.71875 L 10.703125 -9.71875 C 10.347656 -10.457031 9.882812 -10.976562 9.3125 -11.28125 C 8.75 -11.59375 8.023438 -11.75 7.140625 -11.75 C 6.328125 -11.75 5.601562 -11.566406 4.96875 -11.203125 C 4.34375 -10.835938 3.84375 -10.257812 3.46875 -9.46875 C 3.101562 -8.6875 2.921875 -7.6875 2.921875 -6.46875 C 2.921875 -5.238281 3.101562 -4.226562 3.46875 -3.4375 C 3.84375 -2.65625 4.34375 -2.082031 4.96875 -1.71875 C 5.601562 -1.363281 6.328125 -1.1875 7.140625 -1.1875 C 8.078125 -1.1875 8.84375 -1.394531 9.4375 -1.8125 C 10.039062 -2.238281 10.484375 -2.921875 10.765625 -3.859375 L 10.984375 -3.859375 L 12.015625 -3.359375 C 11.703125 -2.210938 11.128906 -1.332031 10.296875 -0.71875 C 9.472656 -0.113281 8.421875 0.1875 7.140625 0.1875 Z M 7.140625 0.1875 "/></g></g></g></svg>